<?xml version="1.0" encoding="utf-8"?>
<!-- Generator: Adobe Illustrator 16.0.0, SVG Export Plug-In . SVG Version: 6.00 Build 0)  -->
<!DOCTYPE svg PUBLIC "-//W3C//DTD SVG 1.1//EN" "http://www.w3.org/Graphics/SVG/1.1/DTD/svg11.dtd">
<svg version="1.1" id="Layer_1" xmlns="http://www.w3.org/2000/svg" xmlns:xlink="http://www.w3.org/1999/xlink" x="0px" y="0px"
	 width="283.46px" height="283.46px" viewBox="0 0 283.46 283.46" enable-background="new 0 0 283.46 283.46" xml:space="preserve">
<g opacity="0.5">
	<path fill="none" stroke="#fff" stroke-width="20" stroke-linecap="round" stroke-linejoin="round" stroke-miterlimit="10" d="
		M158.36,138.051c13.997,2.895,24.528,19.551,10.245,36.699c-12.281,12.705-38.48,15.771-52.064-13.384
		c-5.114-17.949-2.946-37.604,16.115-49.205c33.664-15.305,49.833-4.056,65.421,7.291c19.854,18.517,30.319,73.93-7.597,97.062
		c-39.718,22.438-81.046,11.156-105.146-23.873c-30.117-43.79-7.581-103.486,40.315-127.607c0,0,44.393-20.757,101.045,20.755
		l30.71-24.017"/>
	
		<polyline fill="none" stroke="#fff" stroke-width="20" stroke-linecap="round" stroke-linejoin="round" stroke-miterlimit="10" points="
		159.123,228.11 26.943,228.11 79.673,112.731 	"/>
</g>
</svg>
